<?xml version="1.0" standalone="no"?>
<!DOCTYPE svg PUBLIC "-//W3C//DTD SVG 20010904//EN"
 "http://www.w3.org/TR/2001/REC-SVG-20010904/DTD/svg10.dtd">
<svg version="1.0" xmlns="http://www.w3.org/2000/svg"
 width="986.000000pt" height="896.000000pt" viewBox="0 0 986.000000 896.000000"
 preserveAspectRatio="xMidYMid meet">
<metadata>
Created by potrace 1.15, written by Peter Selinger 2001-2017
</metadata>
<g transform="translate(0.000000,896.000000) scale(0.100000,-0.100000)"
fill="#000000" stroke="none">
<path d="M0 4480 l0 -4480 4930 0 4930 0 0 4480 0 4480 -4930 0 -4930 0 0
-4480z m2850 3540 l0 -400 38 0 c20 0 150 9 287 20 138 11 267 20 288 20 l37
0 0 -310 0 -310 -102 0 c-441 0 -933 -117 -1329 -315 -776 -390 -1260 -1029
-1380 -1825 -27 -175 -32 -555 -11 -705 71 -488 218 -831 505 -1177 374 -450
976 -800 1597 -927 191 -39 485 -71 652 -71 l68 0 0 -310 0 -310 -208 0 c-185
0 -219 3 -317 25 -61 14 -113 25 -117 25 -5 0 -8 -227 -8 -505 l0 -505 -300 0
-300 0 -2 566 -3 566 -115 44 c-63 25 -191 82 -285 129 -631 311 -1149 803
-1478 1400 -170 309 -283 664 -329 1035 -19 152 -16 552 5 720 69 557 269
1031 620 1470 360 452 860 809 1435 1026 l152 58 0 483 0 483 300 0 300 0 0
-400z m-1508 -2849 c159 -63 255 -241 229 -426 -22 -153 -106 -256 -248 -304
-53 -18 -86 -21 -223 -21 l-160 0 0 -197 c0 -216 -4 -233 -61 -233 -60 0 -59
-12 -59 607 0 557 0 563 21 584 20 20 29 21 232 17 191 -4 218 -6 269 -27z
m4371 17 c11 -9 63 -173 151 -481 73 -257 135 -470 138 -472 2 -3 60 194 127
438 68 243 129 452 137 465 11 16 24 22 49 22 30 0 37 -5 50 -32 8 -18 69
-229 136 -468 66 -239 122 -436 123 -437 1 -1 62 210 136 469 86 304 140 478
152 490 36 36 88 12 88 -40 0 -43 -318 -1113 -336 -1133 -20 -22 -53 -24 -78
-6 -12 9 -56 157 -145 482 l-129 470 -12 -45 c-7 -25 -63 -233 -126 -464 -65
-240 -120 -426 -130 -437 -20 -22 -53 -25 -77 -6 -12 8 -72 197 -182 572 -91
308 -165 566 -165 572 0 19 37 53 58 53 10 0 26 -6 35 -12z m-2394 -384 c105
-52 174 -153 192 -283 6 -39 9 -168 7 -287 -3 -200 -4 -217 -22 -230 -26 -19
-55 -18 -78 3 -16 15 -18 36 -18 253 0 261 -7 305 -59 377 -40 56 -107 87
-198 91 -98 6 -163 -17 -223 -77 -65 -65 -70 -92 -70 -385 0 -265 -2 -276 -55
-276 -55 0 -55 -2 -55 424 0 427 -1 419 55 419 38 0 55 -21 55 -64 0 -45 8
-48 39 -15 35 37 126 78 189 85 83 9 178 -5 241 -35z m969 31 c96 -12 204 -91
250 -182 35 -68 42 -136 42 -385 0 -211 -2 -244 -17 -260 -19 -22 -52 -23 -79
-4 -18 13 -19 32 -24 283 -5 291 -7 300 -69 366 -51 56 -96 72 -201 72 -108 0
-149 -14 -208 -73 -60 -60 -62 -74 -62 -359 0 -287 -3 -303 -60 -303 -59 0
-60 5 -60 425 0 209 4 385 8 391 16 24 51 35 75 23 30 -16 37 -28 37 -67 l0
-34 31 27 c70 58 190 98 269 89 14 -2 44 -6 68 -9z m-2024 -15 c29 -12 72 -34
95 -50 91 -66 155 -201 149 -315 -3 -52 -6 -61 -28 -72 -18 -9 -106 -13 -334
-13 l-309 0 6 -36 c14 -83 78 -168 162 -212 43 -23 62 -27 141 -27 86 0 95 2
166 38 42 22 84 37 94 35 10 -2 25 -16 34 -31 15 -28 14 -29 -23 -62 -43 -37
-155 -81 -233 -90 -28 -4 -79 -1 -114 5 -137 25 -240 102 -301 225 -33 68 -34
72 -34 200 0 125 1 133 31 196 52 110 131 182 237 214 67 21 197 19 261 -5z
m2578 8 c9 -7 85 -158 169 -336 83 -177 153 -321 154 -320 1 2 69 150 150 331
125 276 152 328 172 333 29 8 73 -19 73 -44 0 -19 -503 -1136 -522 -1159 -25
-31 -88 -1 -88 41 0 12 34 96 75 186 41 91 75 171 75 179 0 8 -76 174 -170
369 -93 194 -170 366 -170 381 0 40 50 63 82 39z m2343 -12 c8 -12 81 -162
161 -332 80 -170 147 -310 148 -312 2 -1 67 141 146 315 78 175 149 326 158
336 8 9 22 17 31 17 26 0 61 -29 61 -51 0 -23 -496 -1126 -518 -1151 -8 -10
-22 -18 -31 -18 -26 0 -61 29 -61 51 0 11 36 98 79 195 l79 175 -174 362 c-96
199 -174 372 -174 384 0 24 34 53 62 53 10 0 24 -11 33 -24z m1337 -3 c66 -30
138 -99 138 -132 0 -63 -55 -68 -123 -12 -61 50 -105 65 -192 65 -90 0 -149
-28 -172 -81 -12 -31 -13 -41 -1 -72 19 -48 65 -77 156 -96 269 -57 355 -120
355 -260 0 -68 -15 -105 -65 -151 -116 -110 -337 -121 -509 -27 -82 44 -109
94 -72 135 24 26 58 22 97 -12 80 -71 218 -98 328 -66 73 21 108 60 108 121 0
79 -59 115 -265 160 -99 22 -162 53 -204 100 -40 46 -51 74 -51 131 0 92 70
176 174 210 64 21 239 14 298 -13z m911 0 c111 -51 196 -170 219 -308 13 -78
5 -113 -28 -125 -14 -6 -160 -10 -334 -10 l-309 0 6 -32 c17 -92 88 -183 172
-221 36 -17 65 -22 136 -22 92 0 131 12 206 61 36 23 77 12 85 -23 10 -38 -4
-54 -87 -95 -304 -154 -629 41 -629 377 0 104 35 211 97 292 32 41 119 101
174 118 67 22 231 15 292 -12z"/>
<path d="M940 4804 l0 -276 158 4 c139 3 163 6 210 27 172 77 206 325 62 454
-65 59 -100 67 -279 67 l-151 0 0 -276z"/>
<path d="M2034 4722 c-60 -21 -97 -49 -134 -100 -25 -33 -60 -117 -60 -142 0
-6 107 -10 280 -10 l280 0 0 28 c0 16 -14 57 -31 91 -36 72 -85 113 -162 136
-65 19 -110 19 -173 -3z"/>
<path d="M9189 4726 c-52 -14 -96 -43 -135 -89 -32 -38 -64 -109 -64 -143 l0
-24 281 0 281 0 -7 33 c-38 176 -186 269 -356 223z"/>
</g>
</svg>
